<?xml version="1.0" standalone="no"?>
<!DOCTYPE svg PUBLIC "-//W3C//DTD SVG 20010904//EN"
 "http://www.w3.org/TR/2001/REC-SVG-20010904/DTD/svg10.dtd">
<svg version="1.0" xmlns="http://www.w3.org/2000/svg"
 width="300.000000pt" height="300.000000pt" viewBox="0 0 300.000000 300.000000"
 preserveAspectRatio="xMidYMid meet">
<metadata>
Created by potrace 1.11, written by Peter Selinger 2001-2013
</metadata>
<g transform="translate(0.000000,300.000000) scale(0.100000,-0.100000)"
fill="#000000" stroke="none">
<path d="M290 2180 l0 -530 634 0 634 0 -1 -110 c-1 -67 -5 -110 -12 -111 -5
-1 -289 -2 -630 -3 l-620 -1 0 -530 0 -530 875 0 c982 0 969 -1 1116 71 103
51 207 152 251 244 90 190 60 391 -82 546 -58 63 -62 71 -42 76 22 5 406 223
407 230 0 5 -134 85 -334 197 -17 10 -45 27 -63 37 l-31 20 49 48 c58 57 112
150 133 226 21 79 14 209 -14 285 -58 151 -184 267 -360 329 l-85 31 -912 3
-913 3 0 -531z"/>
</g>
</svg>
